In Bruges 2008 BRRip H264 LKRG 
http://img163.imageshack.us/img163/4087/penhuihc.png
http://img14.imageshack.us/img14/2445/gn4zg5au.png
http://img405.imageshack.us/img405/6971/vrmkvefs.png
http://img101.imageshack.us/img101/8364/qyzejgrt.png



Genre: Crime | Drama | Thriller 

Plot: Holed up in Bruges, Belgium after a difficult job, two hit men begin to differ on their views of life and death as they become used to local customs. 

Cast: 
Elizabeth Berrington ... Natalie
Rudy Blomme ... Ticket Seller
Olivier Bonjour ... Film Director
Mark Donovan ... Overweight Man
Ann Elsley ... Overweight Woman #2
Colin Farrell ... Ray
Jean-Marc Favorin ... Policeman
Ralph Fiennes ... Harry Waters
Brendan Gleeson ... Ken
Eric Godon ... Yuri
Zeljko Ivanek ... Canadian Guy
Sachi Kimura ... Imamoto
Anna Madeley ... Denise
Louis Nummy ... Harry's child #3
Clémence Poésy ... Chloë Villette



File Name

In Bruges 2008 BRRip H264 LKRG-Wrath.mp4

File Size
Format : MPEG-4
Format profile : Base Media
Codec ID : isom
File size : 1.75 GiB
Duration : 1h 46mn
Overall bit rate : 2 348 Kbps

Video
ID : 1
Format : AVC
Format/Info : Advanced Video Codec
Format profile : High@L4.1
Format settings, CABAC : Yes
Format settings, ReFrames : 3 frames
Codec ID : avc1
Codec ID/Info : Advanced Video Coding
Duration : 1h 46mn
Bit rate mode : Variable
Bit rate : 2 185 Kbps
Nominal bit rate : 2 903 Kbps
Maximum bit rate : 18.6 Mbps
Width : 1 280 pixels
Height : 528 pixels
Display aspect ratio : 2.40:1
Frame rate mode : Constant
Frame rate : 24.000 fps
Resolution : 24 bits
Colorimetry : 4:2:0
Scan type : Progressive
Bits/(Pixel*Frame) : 0.135
Stream size : 1.63 GiB (93%)

Audio #1
ID : 2
Format : AAC
Format/Info : Advanced Audio Codec
Format version : Version 4
Format profile : LC
Format settings, SBR : No
Codec ID : 40
Codec ID : 40
Duration : 1h 46mn
Bit rate mode : Variable
Bit rate : 160 Kbps
Maximum bit rate : 173 Kbps
Channel(s) : 2 channels
Channel positions : L R
Sampling rate : 48.0 KHz
Resolution : 16 bits
Stream size : 122 MiB (7%)


English SRT : N/A

Language :English